<?xml version="1.0" standalone="no"?><!DOCTYPE svg PUBLIC "-//W3C//DTD SVG 1.1//EN" "http://www.w3.org/Graphics/SVG/1.1/DTD/svg11.dtd"><svg t="1692350294490" class="icon" viewBox="0 0 1024 1024" version="1.1" xmlns="http://www.w3.org/2000/svg" p-id="4037" xmlns:xlink="http://www.w3.org/1999/xlink" width="200" height="200"><path d="M889.406 323.502h-232.85l-144.145-233.377-144.144 233.377h-232.851l116.425 188.498-116.425 188.498h232.851l144.144 233.377 144.144-233.377h232.851l-116.424-188.498 116.424-188.498zM682.367 500.888l0.168-0.283 46.692 82.234 0.262-0.426 26.747 46.275h-55.328l11.872-19.219-41.764-72.992-55.668 92.212h-0.487l-43.348 71.809h0.486l-59.587 98.701-59.587-98.701h86.623l43.046-71.809h-163.898l0.198 0.351-95.116-0.732 0.235 0.382h-55.328l26.747-46.274 11.302 18.299 86.185 0.387-55.322-91.638 0.547-0.943-46.467-74.919 0.056-0.11-23.048-38.179h55.328l-11.863 19.208 41.717 66.798 45.721-79.102-0.741-0.015 47.218-78.698h-0.982l67.427-116.655 67.427 116.654h-101.839l-42.776 71.809h321.014l-27.349 45.302-11.654-18.868-80.519 0.162 45.653 78.983z" p-id="4038"></path></svg>