<?xml version="1.0" standalone="no"?><!DOCTYPE svg PUBLIC "-//W3C//DTD SVG 1.1//EN" "http://www.w3.org/Graphics/SVG/1.1/DTD/svg11.dtd"><svg t="1696958826823" class="icon" viewBox="0 0 1024 1024" version="1.1" xmlns="http://www.w3.org/2000/svg" p-id="15720" xmlns:xlink="http://www.w3.org/1999/xlink" width="200" height="200"><path d="M705.641026 564.512821c-19.692308-6.564103-39.384615 22.974359-39.384616 22.974358s-16.410256 16.410256-6.564102 26.256411c9.846154 9.846154 45.948718 42.666667 72.205128 75.487179 26.25641 32.820513 42.666667 3.282051 55.794872-3.282051 13.128205-6.564103 6.564103-29.538462-9.846154-49.230769-13.128205-19.692308-52.512821-65.641026-72.205128-72.205128z m-134.564103 26.25641c-6.564103-9.846154-29.538462-9.846154-49.230769-3.282052-19.692308 9.846154-6.564103 42.666667-6.564103 42.666667s85.333333 88.615385 108.307693 108.307692c22.974359 19.692308 45.948718 26.25641 62.358974 16.410257 16.410256-9.846154 22.974359-29.538462 9.846154-42.666667-13.128205-13.128205-124.717949-121.435897-124.717949-121.435897z m272.410256-55.794872c-9.846154-9.846154-78.769231-75.487179-78.76923-75.48718-13.128205-6.564103-19.692308 3.282051-32.820513 19.692308-13.128205 13.128205-13.128205 26.25641 29.538461 72.205128 42.666667 42.666667 49.230769 36.102564 65.641026 26.256411 13.128205-16.410256 26.25641-32.820513 16.410256-42.666667zM512 16.410256C239.589744 16.410256 19.692308 236.307692 19.692308 508.717949s219.897436 492.307692 492.307692 492.307692 492.307692-219.897436 492.307692-492.307692-219.897436-492.307692-492.307692-492.307693z m0 892.717949c-219.897436 0-400.410256-180.512821-400.410256-400.410256 0-26.25641 3.282051-52.512821 6.564102-75.48718 9.846154 6.564103 55.794872 36.102564 85.333333 68.923077 32.820513 36.102564 36.102564 68.923077 36.102565 68.923077 82.051282 147.692308 160.820513 164.102564 160.820512 164.102564s22.974359-32.820513 26.256411-42.666666c6.564103-9.846154 9.846154-55.794872 29.538461-91.897436 19.692308-32.820513 95.179487-131.282051 95.179487-131.282052s-52.512821 0-75.487179-6.564102c-22.974359-9.846154-49.230769-85.333333-49.230769-85.333334s42.666667 26.25641 95.179487 32.820513c52.512821 6.564103 72.205128-13.128205 72.205128-13.128205l32.820513 16.410257s-9.846154 36.102564-32.820513 55.794871c-19.692308 19.692308-55.794872 42.666667-19.692308 72.205129 36.102564 32.820513 52.512821 9.846154 52.512821 9.846153s62.358974-91.897436 88.615384-128c26.25641-39.384615 36.102564-55.794872 22.974359-68.923077-13.128205-13.128205-105.025641-78.769231-167.384615-95.179487-62.358974-16.410256-160.820513 3.282051-160.820513 3.282052L301.948718 167.384615c62.358974-36.102564 131.282051-59.076923 210.051282-59.076923 219.897436 0 400.410256 180.512821 400.410256 400.410257 0 219.897436-180.512821 400.410256-400.410256 400.410256z m-26.25641-229.74359c-29.538462 0-42.666667 22.974359-39.384616 42.666667 3.282051 16.410256 13.128205 22.974359 65.641026 72.205128 49.230769 49.230769 68.923077 26.25641 78.769231 13.128205 9.846154-9.846154 6.564103-29.538462-3.282052-45.948718-9.846154-16.410256-101.74359-82.051282-101.743589-82.051282z" fill="#CF220A" p-id="15721"></path></svg>